<svg xmlns="http://www.w3.org/2000/svg" xmlns:xlink="http://www.w3.org/1999/xlink" width="300" zoomAndPan="magnify" viewBox="0 0 224.87999 74.999997" height="100" preserveAspectRatio="xMidYMid meet" version="1.0"><defs><g/><clipPath id="afe46140de"><path d="M 7.496094 20 L 45 20 L 45 67.484375 L 7.496094 67.484375 Z M 7.496094 20 " clip-rule="nonzero"/></clipPath><clipPath id="6f14b7e152"><path d="M 13 8 L 50.972656 8 L 50.972656 56 L 13 56 Z M 13 8 " clip-rule="nonzero"/></clipPath><clipPath id="13adcd5368"><rect x="0" width="27" y="0" height="6"/></clipPath></defs><g clip-path="url(#afe46140de)"><path fill="#ffffff" d="M 38.660156 55.683594 C 38.660156 49.789062 38.660156 43.984375 38.660156 38.179688 C 38.582031 38.152344 38.507812 38.125 38.433594 38.09375 C 35.347656 41.96875 32.261719 45.84375 29.0625 49.859375 C 27.925781 48.441406 26.832031 47.082031 25.648438 45.605469 C 19.824219 52.921875 14.050781 60.175781 8.226562 67.492188 C 7.960938 67.277344 7.75 67.109375 7.496094 66.90625 C 19.890625 51.324219 32.238281 35.796875 44.746094 20.074219 C 44.746094 32.09375 44.746094 43.859375 44.746094 55.683594 C 42.746094 55.683594 40.800781 55.683594 38.660156 55.683594 Z M 38.660156 55.683594 " fill-opacity="1" fill-rule="nonzero"/></g><g clip-path="url(#6f14b7e152)"><path fill="#ffffff" d="M 13.382812 20.238281 C 17.90625 25.921875 22.289062 31.429688 26.769531 37.058594 C 27.109375 36.648438 27.40625 36.300781 27.691406 35.941406 C 34.875 26.90625 42.058594 17.863281 49.253906 8.835938 C 49.570312 8.4375 49.871094 7.519531 50.664062 8.566406 C 41.632812 19.917969 32.597656 31.28125 23.457031 42.773438 C 22.183594 41.195312 20.96875 39.691406 19.613281 38.015625 C 19.5625 38.457031 19.507812 38.710938 19.507812 38.964844 C 19.503906 41.582031 19.535156 44.203125 19.480469 46.820312 C 19.46875 47.359375 19.265625 47.988281 18.941406 48.410156 C 17.171875 50.71875 15.339844 52.976562 13.382812 55.4375 C 13.382812 43.640625 13.382812 32.066406 13.382812 20.238281 Z M 13.382812 20.238281 " fill-opacity="1" fill-rule="nonzero"/></g><g fill="#ffffff" fill-opacity="1"><g transform="translate(45.654256, 55.519917)"><g><path d="M 1.484375 -11.703125 L 4.796875 -11.703125 L 4.796875 -10.046875 C 4.992188 -10.285156 5.203125 -10.519531 5.421875 -10.75 C 5.648438 -10.976562 5.898438 -11.175781 6.171875 -11.34375 C 6.453125 -11.519531 6.765625 -11.660156 7.109375 -11.765625 C 7.453125 -11.867188 7.832031 -11.921875 8.25 -11.921875 C 9.019531 -11.921875 9.6875 -11.757812 10.25 -11.4375 C 10.8125 -11.113281 11.242188 -10.65625 11.546875 -10.0625 C 12.054688 -10.675781 12.625 -11.140625 13.25 -11.453125 C 13.875 -11.765625 14.585938 -11.921875 15.390625 -11.921875 C 16.628906 -11.921875 17.597656 -11.554688 18.296875 -10.828125 C 18.992188 -10.097656 19.34375 -9.03125 19.34375 -7.625 L 19.34375 0 L 16.015625 0 L 16.015625 -6.53125 C 16.015625 -7.3125 15.847656 -7.898438 15.515625 -8.296875 C 15.179688 -8.703125 14.703125 -8.90625 14.078125 -8.90625 C 13.453125 -8.90625 12.960938 -8.703125 12.609375 -8.296875 C 12.253906 -7.898438 12.078125 -7.3125 12.078125 -6.53125 L 12.078125 0 L 8.75 0 L 8.75 -6.53125 C 8.75 -7.3125 8.582031 -7.898438 8.25 -8.296875 C 7.914062 -8.703125 7.4375 -8.90625 6.8125 -8.90625 C 6.1875 -8.90625 5.691406 -8.703125 5.328125 -8.296875 C 4.972656 -7.898438 4.796875 -7.3125 4.796875 -6.53125 L 4.796875 0 L 1.484375 0 Z M 1.484375 -11.703125 "/></g></g></g><g fill="#ffffff" fill-opacity="1"><g transform="translate(66.383698, 55.519917)"><g><path d="M 7.21875 0.265625 C 6.320312 0.265625 5.488281 0.109375 4.71875 -0.203125 C 3.945312 -0.515625 3.28125 -0.941406 2.71875 -1.484375 C 2.15625 -2.035156 1.710938 -2.675781 1.390625 -3.40625 C 1.078125 -4.144531 0.921875 -4.9375 0.921875 -5.78125 L 0.921875 -5.828125 C 0.921875 -6.671875 1.078125 -7.457031 1.390625 -8.1875 C 1.710938 -8.925781 2.15625 -9.570312 2.71875 -10.125 C 3.289062 -10.675781 3.960938 -11.113281 4.734375 -11.4375 C 5.503906 -11.757812 6.347656 -11.921875 7.265625 -11.921875 C 8.171875 -11.921875 9.007812 -11.765625 9.78125 -11.453125 C 10.550781 -11.140625 11.210938 -10.707031 11.765625 -10.15625 C 12.328125 -9.613281 12.769531 -8.972656 13.09375 -8.234375 C 13.414062 -7.503906 13.578125 -6.71875 13.578125 -5.875 L 13.578125 -5.828125 C 13.578125 -4.984375 13.414062 -4.191406 13.09375 -3.453125 C 12.769531 -2.722656 12.328125 -2.082031 11.765625 -1.53125 C 11.203125 -0.976562 10.53125 -0.539062 9.75 -0.21875 C 8.976562 0.101562 8.132812 0.265625 7.21875 0.265625 Z M 7.265625 -2.59375 C 7.742188 -2.59375 8.171875 -2.675781 8.546875 -2.84375 C 8.921875 -3.007812 9.238281 -3.238281 9.5 -3.53125 C 9.757812 -3.820312 9.957031 -4.160156 10.09375 -4.546875 C 10.226562 -4.929688 10.296875 -5.34375 10.296875 -5.78125 L 10.296875 -5.828125 C 10.296875 -6.265625 10.222656 -6.675781 10.078125 -7.0625 C 9.929688 -7.445312 9.71875 -7.785156 9.4375 -8.078125 C 9.164062 -8.378906 8.84375 -8.617188 8.46875 -8.796875 C 8.09375 -8.972656 7.675781 -9.0625 7.21875 -9.0625 C 6.738281 -9.0625 6.3125 -8.976562 5.9375 -8.8125 C 5.570312 -8.644531 5.257812 -8.414062 5 -8.125 C 4.738281 -7.832031 4.535156 -7.492188 4.390625 -7.109375 C 4.253906 -6.722656 4.1875 -6.3125 4.1875 -5.875 L 4.1875 -5.828125 C 4.1875 -5.390625 4.257812 -4.976562 4.40625 -4.59375 C 4.550781 -4.207031 4.757812 -3.863281 5.03125 -3.5625 C 5.3125 -3.269531 5.632812 -3.035156 6 -2.859375 C 6.375 -2.679688 6.796875 -2.59375 7.265625 -2.59375 Z M 7.265625 -2.59375 "/></g></g></g><g fill="#ffffff" fill-opacity="1"><g transform="translate(80.872482, 55.519917)"><g><path d="M 8.453125 0.21875 C 7.554688 0.21875 6.820312 0.046875 6.25 -0.296875 C 5.675781 -0.648438 5.191406 -1.0625 4.796875 -1.53125 L 4.796875 0 L 1.484375 0 L 1.484375 -15.9375 L 4.796875 -15.9375 L 4.796875 -10.015625 C 5.203125 -10.566406 5.691406 -11.019531 6.265625 -11.375 C 6.847656 -11.738281 7.578125 -11.921875 8.453125 -11.921875 C 9.128906 -11.921875 9.785156 -11.785156 10.421875 -11.515625 C 11.066406 -11.253906 11.632812 -10.863281 12.125 -10.34375 C 12.625 -9.832031 13.023438 -9.203125 13.328125 -8.453125 C 13.628906 -7.703125 13.78125 -6.84375 13.78125 -5.875 L 13.78125 -5.828125 C 13.78125 -4.847656 13.628906 -3.984375 13.328125 -3.234375 C 13.023438 -2.492188 12.628906 -1.863281 12.140625 -1.34375 C 11.660156 -0.820312 11.097656 -0.429688 10.453125 -0.171875 C 9.816406 0.0859375 9.148438 0.21875 8.453125 0.21875 Z M 7.59375 -2.59375 C 7.988281 -2.59375 8.359375 -2.671875 8.703125 -2.828125 C 9.046875 -2.984375 9.347656 -3.203125 9.609375 -3.484375 C 9.867188 -3.765625 10.070312 -4.101562 10.21875 -4.5 C 10.375 -4.894531 10.453125 -5.335938 10.453125 -5.828125 L 10.453125 -5.875 C 10.453125 -6.351562 10.375 -6.789062 10.21875 -7.1875 C 10.070312 -7.59375 9.867188 -7.9375 9.609375 -8.21875 C 9.347656 -8.5 9.046875 -8.71875 8.703125 -8.875 C 8.359375 -9.03125 7.988281 -9.109375 7.59375 -9.109375 C 7.195312 -9.109375 6.828125 -9.03125 6.484375 -8.875 C 6.148438 -8.71875 5.851562 -8.5 5.59375 -8.21875 C 5.34375 -7.9375 5.140625 -7.59375 4.984375 -7.1875 C 4.835938 -6.789062 4.765625 -6.351562 4.765625 -5.875 L 4.765625 -5.828125 C 4.765625 -5.347656 4.835938 -4.90625 4.984375 -4.5 C 5.140625 -4.101562 5.34375 -3.765625 5.59375 -3.484375 C 5.851562 -3.203125 6.148438 -2.984375 6.484375 -2.828125 C 6.828125 -2.671875 7.195312 -2.59375 7.59375 -2.59375 Z M 7.59375 -2.59375 "/></g></g></g><g fill="#ffffff" fill-opacity="1"><g transform="translate(95.601293, 55.519917)"><g><path d="M 5.375 0.21875 C 4.101562 0.21875 3.117188 -0.164062 2.421875 -0.9375 C 1.734375 -1.707031 1.390625 -2.769531 1.390625 -4.125 L 1.390625 -11.703125 L 4.71875 -11.703125 L 4.71875 -5.171875 C 4.71875 -4.390625 4.890625 -3.796875 5.234375 -3.390625 C 5.585938 -2.992188 6.082031 -2.796875 6.71875 -2.796875 C 7.363281 -2.796875 7.867188 -2.992188 8.234375 -3.390625 C 8.609375 -3.796875 8.796875 -4.390625 8.796875 -5.171875 L 8.796875 -11.703125 L 12.109375 -11.703125 L 12.109375 0 L 8.796875 0 L 8.796875 -1.65625 C 8.609375 -1.40625 8.398438 -1.164062 8.171875 -0.9375 C 7.953125 -0.71875 7.703125 -0.519531 7.421875 -0.34375 C 7.140625 -0.175781 6.832031 -0.0390625 6.5 0.0625 C 6.164062 0.164062 5.789062 0.21875 5.375 0.21875 Z M 5.375 0.21875 "/></g></g></g><g fill="#ffffff" fill-opacity="1"><g transform="translate(109.195444, 55.519917)"><g><path d="M 7.21875 0.265625 C 6.320312 0.265625 5.488281 0.109375 4.71875 -0.203125 C 3.945312 -0.515625 3.28125 -0.941406 2.71875 -1.484375 C 2.15625 -2.035156 1.710938 -2.675781 1.390625 -3.40625 C 1.078125 -4.144531 0.921875 -4.9375 0.921875 -5.78125 L 0.921875 -5.828125 C 0.921875 -6.671875 1.078125 -7.457031 1.390625 -8.1875 C 1.710938 -8.925781 2.15625 -9.570312 2.71875 -10.125 C 3.289062 -10.675781 3.960938 -11.113281 4.734375 -11.4375 C 5.503906 -11.757812 6.347656 -11.921875 7.265625 -11.921875 C 8.171875 -11.921875 9.007812 -11.765625 9.78125 -11.453125 C 10.550781 -11.140625 11.210938 -10.707031 11.765625 -10.15625 C 12.328125 -9.613281 12.769531 -8.972656 13.09375 -8.234375 C 13.414062 -7.503906 13.578125 -6.71875 13.578125 -5.875 L 13.578125 -5.828125 C 13.578125 -4.984375 13.414062 -4.191406 13.09375 -3.453125 C 12.769531 -2.722656 12.328125 -2.082031 11.765625 -1.53125 C 11.203125 -0.976562 10.53125 -0.539062 9.75 -0.21875 C 8.976562 0.101562 8.132812 0.265625 7.21875 0.265625 Z M 7.265625 -2.59375 C 7.742188 -2.59375 8.171875 -2.675781 8.546875 -2.84375 C 8.921875 -3.007812 9.238281 -3.238281 9.5 -3.53125 C 9.757812 -3.820312 9.957031 -4.160156 10.09375 -4.546875 C 10.226562 -4.929688 10.296875 -5.34375 10.296875 -5.78125 L 10.296875 -5.828125 C 10.296875 -6.265625 10.222656 -6.675781 10.078125 -7.0625 C 9.929688 -7.445312 9.71875 -7.785156 9.4375 -8.078125 C 9.164062 -8.378906 8.84375 -8.617188 8.46875 -8.796875 C 8.09375 -8.972656 7.675781 -9.0625 7.21875 -9.0625 C 6.738281 -9.0625 6.3125 -8.976562 5.9375 -8.8125 C 5.570312 -8.644531 5.257812 -8.414062 5 -8.125 C 4.738281 -7.832031 4.535156 -7.492188 4.390625 -7.109375 C 4.253906 -6.722656 4.1875 -6.3125 4.1875 -5.875 L 4.1875 -5.828125 C 4.1875 -5.390625 4.257812 -4.976562 4.40625 -4.59375 C 4.550781 -4.207031 4.757812 -3.863281 5.03125 -3.5625 C 5.3125 -3.269531 5.632812 -3.035156 6 -2.859375 C 6.375 -2.679688 6.796875 -2.59375 7.265625 -2.59375 Z M 7.265625 -2.59375 "/></g></g></g><g fill="#ffffff" fill-opacity="1"><g transform="translate(123.684228, 55.519917)"><g><path d="M 5.59375 0.21875 C 4.757812 0.21875 3.910156 0.078125 3.046875 -0.203125 C 2.179688 -0.492188 1.351562 -0.941406 0.5625 -1.546875 L 1.984375 -3.734375 C 2.628906 -3.265625 3.265625 -2.910156 3.890625 -2.671875 C 4.523438 -2.441406 5.117188 -2.328125 5.671875 -2.328125 C 6.148438 -2.328125 6.503906 -2.40625 6.734375 -2.5625 C 6.960938 -2.726562 7.078125 -2.941406 7.078125 -3.203125 L 7.078125 -3.25 C 7.078125 -3.425781 7.007812 -3.578125 6.875 -3.703125 C 6.738281 -3.835938 6.554688 -3.953125 6.328125 -4.046875 C 6.109375 -4.140625 5.851562 -4.226562 5.5625 -4.3125 C 5.269531 -4.40625 4.96875 -4.503906 4.65625 -4.609375 C 4.238281 -4.722656 3.820312 -4.863281 3.40625 -5.03125 C 3 -5.195312 2.628906 -5.414062 2.296875 -5.6875 C 1.960938 -5.957031 1.6875 -6.285156 1.46875 -6.671875 C 1.257812 -7.066406 1.15625 -7.550781 1.15625 -8.125 L 1.15625 -8.15625 C 1.15625 -8.757812 1.265625 -9.289062 1.484375 -9.75 C 1.710938 -10.207031 2.019531 -10.59375 2.40625 -10.90625 C 2.789062 -11.226562 3.242188 -11.46875 3.765625 -11.625 C 4.285156 -11.789062 4.84375 -11.875 5.4375 -11.875 C 6.175781 -11.875 6.925781 -11.753906 7.6875 -11.515625 C 8.457031 -11.273438 9.160156 -10.941406 9.796875 -10.515625 L 8.53125 -8.234375 C 7.945312 -8.566406 7.378906 -8.832031 6.828125 -9.03125 C 6.273438 -9.226562 5.789062 -9.328125 5.375 -9.328125 C 4.96875 -9.328125 4.660156 -9.25 4.453125 -9.09375 C 4.242188 -8.9375 4.140625 -8.742188 4.140625 -8.515625 L 4.140625 -8.46875 C 4.140625 -8.3125 4.207031 -8.171875 4.34375 -8.046875 C 4.476562 -7.921875 4.648438 -7.800781 4.859375 -7.6875 C 5.078125 -7.582031 5.328125 -7.476562 5.609375 -7.375 C 5.898438 -7.269531 6.207031 -7.171875 6.53125 -7.078125 C 6.9375 -6.941406 7.347656 -6.78125 7.765625 -6.59375 C 8.191406 -6.414062 8.570312 -6.195312 8.90625 -5.9375 C 9.238281 -5.675781 9.515625 -5.351562 9.734375 -4.96875 C 9.953125 -4.59375 10.0625 -4.140625 10.0625 -3.609375 L 10.0625 -3.5625 C 10.0625 -2.90625 9.945312 -2.335938 9.71875 -1.859375 C 9.5 -1.390625 9.179688 -1 8.765625 -0.6875 C 8.359375 -0.382812 7.882812 -0.15625 7.34375 0 C 6.800781 0.144531 6.21875 0.21875 5.59375 0.21875 Z M 5.59375 0.21875 "/></g></g></g><g fill="#ffffff" fill-opacity="1"><g transform="translate(134.638103, 55.519917)"><g><path d="M 1.546875 -15.9375 L 5.046875 -15.9375 L 5.046875 -12.984375 L 1.546875 -12.984375 Z M 1.640625 -11.703125 L 4.953125 -11.703125 L 4.953125 0 L 1.640625 0 Z M 1.640625 -11.703125 "/></g></g></g><g fill="#ffffff" fill-opacity="1"><g transform="translate(141.227882, 55.519917)"><g/></g></g><g fill="#ffffff" fill-opacity="1"><g transform="translate(147.774025, 55.519917)"><g><path d="M 0.53125 -15.28125 L 4.234375 -15.28125 L 8.234375 -4.515625 L 12.21875 -15.28125 L 15.84375 -15.28125 L 9.671875 0.109375 L 6.703125 0.109375 Z M 0.53125 -15.28125 "/></g></g></g><g fill="#ffffff" fill-opacity="1"><g transform="translate(163.702955, 55.519917)"><g><path d="M 1.546875 -15.9375 L 5.046875 -15.9375 L 5.046875 -12.984375 L 1.546875 -12.984375 Z M 1.640625 -11.703125 L 4.953125 -11.703125 L 4.953125 0 L 1.640625 0 Z M 1.640625 -11.703125 "/></g></g></g><g fill="#ffffff" fill-opacity="1"><g transform="translate(170.292734, 55.519917)"><g><path d="M 5.59375 0.21875 C 4.757812 0.21875 3.910156 0.078125 3.046875 -0.203125 C 2.179688 -0.492188 1.351562 -0.941406 0.5625 -1.546875 L 1.984375 -3.734375 C 2.628906 -3.265625 3.265625 -2.910156 3.890625 -2.671875 C 4.523438 -2.441406 5.117188 -2.328125 5.671875 -2.328125 C 6.148438 -2.328125 6.503906 -2.40625 6.734375 -2.5625 C 6.960938 -2.726562 7.078125 -2.941406 7.078125 -3.203125 L 7.078125 -3.25 C 7.078125 -3.425781 7.007812 -3.578125 6.875 -3.703125 C 6.738281 -3.835938 6.554688 -3.953125 6.328125 -4.046875 C 6.109375 -4.140625 5.851562 -4.226562 5.5625 -4.3125 C 5.269531 -4.40625 4.96875 -4.503906 4.65625 -4.609375 C 4.238281 -4.722656 3.820312 -4.863281 3.40625 -5.03125 C 3 -5.195312 2.628906 -5.414062 2.296875 -5.6875 C 1.960938 -5.957031 1.6875 -6.285156 1.46875 -6.671875 C 1.257812 -7.066406 1.15625 -7.550781 1.15625 -8.125 L 1.15625 -8.15625 C 1.15625 -8.757812 1.265625 -9.289062 1.484375 -9.75 C 1.710938 -10.207031 2.019531 -10.59375 2.40625 -10.90625 C 2.789062 -11.226562 3.242188 -11.46875 3.765625 -11.625 C 4.285156 -11.789062 4.84375 -11.875 5.4375 -11.875 C 6.175781 -11.875 6.925781 -11.753906 7.6875 -11.515625 C 8.457031 -11.273438 9.160156 -10.941406 9.796875 -10.515625 L 8.53125 -8.234375 C 7.945312 -8.566406 7.378906 -8.832031 6.828125 -9.03125 C 6.273438 -9.226562 5.789062 -9.328125 5.375 -9.328125 C 4.96875 -9.328125 4.660156 -9.25 4.453125 -9.09375 C 4.242188 -8.9375 4.140625 -8.742188 4.140625 -8.515625 L 4.140625 -8.46875 C 4.140625 -8.3125 4.207031 -8.171875 4.34375 -8.046875 C 4.476562 -7.921875 4.648438 -7.800781 4.859375 -7.6875 C 5.078125 -7.582031 5.328125 -7.476562 5.609375 -7.375 C 5.898438 -7.269531 6.207031 -7.171875 6.53125 -7.078125 C 6.9375 -6.941406 7.347656 -6.78125 7.765625 -6.59375 C 8.191406 -6.414062 8.570312 -6.195312 8.90625 -5.9375 C 9.238281 -5.675781 9.515625 -5.351562 9.734375 -4.96875 C 9.953125 -4.59375 10.0625 -4.140625 10.0625 -3.609375 L 10.0625 -3.5625 C 10.0625 -2.90625 9.945312 -2.335938 9.71875 -1.859375 C 9.5 -1.390625 9.179688 -1 8.765625 -0.6875 C 8.359375 -0.382812 7.882812 -0.15625 7.34375 0 C 6.800781 0.144531 6.21875 0.21875 5.59375 0.21875 Z M 5.59375 0.21875 "/></g></g></g><g fill="#ffffff" fill-opacity="1"><g transform="translate(181.246608, 55.519917)"><g><path d="M 1.546875 -15.9375 L 5.046875 -15.9375 L 5.046875 -12.984375 L 1.546875 -12.984375 Z M 1.640625 -11.703125 L 4.953125 -11.703125 L 4.953125 0 L 1.640625 0 Z M 1.640625 -11.703125 "/></g></g></g><g fill="#ffffff" fill-opacity="1"><g transform="translate(187.836387, 55.519917)"><g><path d="M 7.21875 0.265625 C 6.320312 0.265625 5.488281 0.109375 4.71875 -0.203125 C 3.945312 -0.515625 3.28125 -0.941406 2.71875 -1.484375 C 2.15625 -2.035156 1.710938 -2.675781 1.390625 -3.40625 C 1.078125 -4.144531 0.921875 -4.9375 0.921875 -5.78125 L 0.921875 -5.828125 C 0.921875 -6.671875 1.078125 -7.457031 1.390625 -8.1875 C 1.710938 -8.925781 2.15625 -9.570312 2.71875 -10.125 C 3.289062 -10.675781 3.960938 -11.113281 4.734375 -11.4375 C 5.503906 -11.757812 6.347656 -11.921875 7.265625 -11.921875 C 8.171875 -11.921875 9.007812 -11.765625 9.78125 -11.453125 C 10.550781 -11.140625 11.210938 -10.707031 11.765625 -10.15625 C 12.328125 -9.613281 12.769531 -8.972656 13.09375 -8.234375 C 13.414062 -7.503906 13.578125 -6.71875 13.578125 -5.875 L 13.578125 -5.828125 C 13.578125 -4.984375 13.414062 -4.191406 13.09375 -3.453125 C 12.769531 -2.722656 12.328125 -2.082031 11.765625 -1.53125 C 11.203125 -0.976562 10.53125 -0.539062 9.75 -0.21875 C 8.976562 0.101562 8.132812 0.265625 7.21875 0.265625 Z M 7.265625 -2.59375 C 7.742188 -2.59375 8.171875 -2.675781 8.546875 -2.84375 C 8.921875 -3.007812 9.238281 -3.238281 9.5 -3.53125 C 9.757812 -3.820312 9.957031 -4.160156 10.09375 -4.546875 C 10.226562 -4.929688 10.296875 -5.34375 10.296875 -5.78125 L 10.296875 -5.828125 C 10.296875 -6.265625 10.222656 -6.675781 10.078125 -7.0625 C 9.929688 -7.445312 9.71875 -7.785156 9.4375 -8.078125 C 9.164062 -8.378906 8.84375 -8.617188 8.46875 -8.796875 C 8.09375 -8.972656 7.675781 -9.0625 7.21875 -9.0625 C 6.738281 -9.0625 6.3125 -8.976562 5.9375 -8.8125 C 5.570312 -8.644531 5.257812 -8.414062 5 -8.125 C 4.738281 -7.832031 4.535156 -7.492188 4.390625 -7.109375 C 4.253906 -6.722656 4.1875 -6.3125 4.1875 -5.875 L 4.1875 -5.828125 C 4.1875 -5.390625 4.257812 -4.976562 4.40625 -4.59375 C 4.550781 -4.207031 4.757812 -3.863281 5.03125 -3.5625 C 5.3125 -3.269531 5.632812 -3.035156 6 -2.859375 C 6.375 -2.679688 6.796875 -2.59375 7.265625 -2.59375 Z M 7.265625 -2.59375 "/></g></g></g><g fill="#ffffff" fill-opacity="1"><g transform="translate(202.325172, 55.519917)"><g><path d="M 1.484375 -11.703125 L 4.796875 -11.703125 L 4.796875 -10.046875 C 4.992188 -10.285156 5.203125 -10.519531 5.421875 -10.75 C 5.648438 -10.976562 5.898438 -11.175781 6.171875 -11.34375 C 6.453125 -11.519531 6.757812 -11.660156 7.09375 -11.765625 C 7.425781 -11.867188 7.804688 -11.921875 8.234375 -11.921875 C 9.492188 -11.921875 10.46875 -11.535156 11.15625 -10.765625 C 11.851562 -9.992188 12.203125 -8.929688 12.203125 -7.578125 L 12.203125 0 L 8.890625 0 L 8.890625 -6.53125 C 8.890625 -7.3125 8.710938 -7.898438 8.359375 -8.296875 C 8.015625 -8.703125 7.519531 -8.90625 6.875 -8.90625 C 6.238281 -8.90625 5.734375 -8.703125 5.359375 -8.296875 C 4.984375 -7.898438 4.796875 -7.3125 4.796875 -6.53125 L 4.796875 0 L 1.484375 0 Z M 1.484375 -11.703125 "/></g></g></g><g transform="matrix(1, 0, 0, 1, 190, 58)"><g clip-path="url(#13adcd5368)"><g fill="#ffffff" fill-opacity="1"><g transform="translate(1.127941, 4.165846)"><g><path d="M 0.390625 -2.796875 L 0.71875 -2.796875 L 0.71875 -0.296875 L 2.28125 -0.296875 L 2.28125 0 L 0.390625 0 Z M 0.390625 -2.796875 "/></g></g></g><g fill="#ffffff" fill-opacity="1"><g transform="translate(4.845971, 4.165846)"><g><path d="M 0.421875 -2.796875 L 0.734375 -2.796875 L 0.734375 0 L 0.421875 0 Z M 0.421875 -2.796875 "/></g></g></g><g fill="#ffffff" fill-opacity="1"><g transform="translate(7.268682, 4.165846)"><g><path d="M 0.390625 -2.796875 L 0.71875 -2.796875 L 1.734375 -1.265625 L 2.75 -2.796875 L 3.078125 -2.796875 L 3.078125 0 L 2.765625 0 L 2.765625 -2.265625 L 1.734375 -0.765625 L 1.71875 -0.765625 L 0.703125 -2.265625 L 0.703125 0 L 0.390625 0 Z M 0.390625 -2.796875 "/></g></g></g><g fill="#ffffff" fill-opacity="1"><g transform="translate(11.998181, 4.165846)"><g><path d="M 0.421875 -2.796875 L 0.734375 -2.796875 L 0.734375 0 L 0.421875 0 Z M 0.421875 -2.796875 "/></g></g></g><g fill="#ffffff" fill-opacity="1"><g transform="translate(14.420893, 4.165846)"><g><path d="M 1.125 -2.515625 L 0.1875 -2.515625 L 0.1875 -2.796875 L 2.390625 -2.796875 L 2.390625 -2.515625 L 1.4375 -2.515625 L 1.4375 0 L 1.125 0 Z M 1.125 -2.515625 "/></g></g></g><g fill="#ffffff" fill-opacity="1"><g transform="translate(18.242866, 4.165846)"><g><path d="M 0.390625 -2.796875 L 2.421875 -2.796875 L 2.421875 -2.515625 L 0.71875 -2.515625 L 0.71875 -1.5625 L 2.234375 -1.5625 L 2.234375 -1.265625 L 0.71875 -1.265625 L 0.71875 -0.28125 L 2.4375 -0.28125 L 2.4375 0 L 0.390625 0 Z M 0.390625 -2.796875 "/></g></g></g><g fill="#ffffff" fill-opacity="1"><g transform="translate(22.18078, 4.165846)"><g><path d="M 0.390625 -2.796875 L 1.375 -2.796875 C 1.59375 -2.796875 1.789062 -2.757812 1.96875 -2.6875 C 2.15625 -2.625 2.3125 -2.53125 2.4375 -2.40625 C 2.570312 -2.28125 2.675781 -2.128906 2.75 -1.953125 C 2.820312 -1.785156 2.859375 -1.601562 2.859375 -1.40625 C 2.859375 -1.207031 2.820312 -1.019531 2.75 -0.84375 C 2.675781 -0.675781 2.570312 -0.53125 2.4375 -0.40625 C 2.3125 -0.28125 2.15625 -0.179688 1.96875 -0.109375 C 1.789062 -0.0351562 1.59375 0 1.375 0 L 0.390625 0 Z M 0.71875 -2.515625 L 0.71875 -0.296875 L 1.375 -0.296875 C 1.539062 -0.296875 1.695312 -0.320312 1.84375 -0.375 C 1.988281 -0.425781 2.109375 -0.5 2.203125 -0.59375 C 2.304688 -0.695312 2.382812 -0.816406 2.4375 -0.953125 C 2.5 -1.085938 2.53125 -1.234375 2.53125 -1.390625 L 2.53125 -1.40625 C 2.53125 -1.550781 2.5 -1.691406 2.4375 -1.828125 C 2.382812 -1.960938 2.304688 -2.082031 2.203125 -2.1875 C 2.109375 -2.289062 1.988281 -2.367188 1.84375 -2.421875 C 1.695312 -2.484375 1.539062 -2.515625 1.375 -2.515625 Z M 0.71875 -2.515625 "/></g></g></g></g></g></svg>